<svg display="none" xmlns="http://www.w3.org/2000/svg">
<symbol id="menu" viewBox="0 0 512 512">
<g>
		<path d="M512,97.248c-19.04,8.352-39.328,13.888-60.48,16.576c21.76-12.992,38.368-33.408,46.176-58.016
			c-20.288,12.096-42.688,20.64-66.56,25.408C411.872,60.704,384.416,48,354.464,48c-58.112,0-104.896,47.168-104.896,104.992
			c0,8.32,0.704,16.32,2.432,23.936c-87.264-4.256-164.48-46.08-216.352-109.792c-9.056,15.712-14.368,33.696-14.368,53.056
			c0,36.352,18.72,68.576,46.624,87.232c-16.864-0.32-33.408-5.216-47.424-12.928c0,0.32,0,0.736,0,1.152
			c0,51.008,36.384,93.376,84.096,103.136c-8.544,2.336-17.856,3.456-27.52,3.456c-6.72,0-13.504-0.384-19.872-1.792
			c13.6,41.568,52.192,72.128,98.08,73.12c-35.712,27.936-81.056,44.768-130.144,44.768c-8.608,0-16.864-0.384-25.12-1.44
			C46.496,446.88,101.6,464,161.024,464c193.152,0,298.752-160,298.752-298.688c0-4.64-0.16-9.12-0.384-13.568
			C480.224,136.96,497.728,118.496,512,97.248z"/>
	</g>
</symbol>


<symbol id="calendar" viewBox="0 0 128 128">
<g><path d="m6.306 39.363h115.387v82.331h-115.387z" fill="#dfeef4"/><path d="m6.306 15.838h115.387v23.525h-115.387z" 
fill="#f45858"/><path d="m60.269 6.306h7.462v19.062h-7.462z" fill="#6d7a84"/>
<path d="m90.052 6.306h7.462v19.062h-7.462z" fill="#6d7a84"/><path d="m30.486 6.306h7.462v19.062h-7.462z"
 fill="#6d7a84"/><g fill="#3ea2e5"><circle cx="27.661" cy="57.048" r="6.283"/><circle cx="51.887" cy="57.048" r="6.283"/>
 <circle cx="76.113" cy="57.048" r="6.283"/><circle cx="100.339" cy="57.048" r="6.283"/><circle cx="27.661" cy="80.528" r="6.283"/>
 <circle cx="51.887" cy="80.528" r="6.283"/><circle cx="76.113" cy="80.528" r="6.283"/><circle cx="100.339" cy="80.528" r="6.283"/>
 <circle cx="27.661" cy="104.009" r="6.283"/><circle cx="51.887" cy="104.009" r="6.283"/>
<circle cx="76.113" cy="104.009" r="6.283"/><circle cx="100.339" cy="104.009" r="6.283"/></g></g>
</symbol>



<symbol id="calendar" viewBox="0 0 128 128">
<g><path d="m6.306 39.363h115.387v82.331h-115.387z" fill="#dfeef4"/><path d="m6.306 15.838h115.387v23.525h-115.387z" 
fill="#f45858"/><path d="m60.269 6.306h7.462v19.062h-7.462z" fill="#6d7a84"/>
<path d="m90.052 6.306h7.462v19.062h-7.462z" fill="#6d7a84"/><path d="m30.486 6.306h7.462v19.062h-7.462z"
 fill="#6d7a84"/><g fill="#3ea2e5"><circle cx="27.661" cy="57.048" r="6.283"/><circle cx="51.887" cy="57.048" r="6.283"/>
 <circle cx="76.113" cy="57.048" r="6.283"/><circle cx="100.339" cy="57.048" r="6.283"/><circle cx="27.661" cy="80.528" r="6.283"/>
 <circle cx="51.887" cy="80.528" r="6.283"/><circle cx="76.113" cy="80.528" r="6.283"/><circle cx="100.339" cy="80.528" r="6.283"/>
 <circle cx="27.661" cy="104.009" r="6.283"/><circle cx="51.887" cy="104.009" r="6.283"/>
<circle cx="76.113" cy="104.009" r="6.283"/><circle cx="100.339" cy="104.009" r="6.283"/></g></g>
</symbol>

<symbol id="user" viewBox="0 0 512 512">
<g>
		<path d="M437.02,330.98c-27.883-27.882-61.071-48.523-97.281-61.018C378.521,243.251,404,198.548,404,148
			C404,66.393,337.607,0,256,0S108,66.393,108,148c0,50.548,25.479,95.251,64.262,121.962
			c-36.21,12.495-69.398,33.136-97.281,61.018C26.629,379.333,0,443.62,0,512h40c0-119.103,96.897-216,216-216s216,96.897,216,216
			h40C512,443.62,485.371,379.333,437.02,330.98z M256,256c-59.551,0-108-48.448-108-108S196.449,40,256,40
			c59.551,0,108,48.448,108,108S315.551,256,256,256z"/>
	</g>
</symbol>

<symbol id="question" viewBox="0 0 512 512">
<g>
			<circle cx="256" cy="378.5" r="25"/>
			<path d="M256,0C114.516,0,0,114.497,0,256c0,141.484,114.497,256,256,256c141.484,0,256-114.497,256-256
				C512,114.516,397.503,0,256,0z M256,472c-119.377,0-216-96.607-216-216c0-119.377,96.607-216,216-216
				c119.377,0,216,96.607,216,216C472,375.377,375.393,472,256,472z"/>
			<path d="M256,128.5c-44.112,0-80,35.888-80,80c0,11.046,8.954,20,20,20s20-8.954,20-20c0-22.056,17.944-40,40-40
				c22.056,0,40,17.944,40,40c0,22.056-17.944,40-40,40c-11.046,0-20,8.954-20,20v50c0,11.046,8.954,20,20,20
				c11.046,0,20-8.954,20-20v-32.531c34.466-8.903,60-40.26,60-77.469C336,164.388,300.112,128.5,256,128.5z"/>
		</g>
</symbol>

<symbol id="contact" viewBox="0 0 512 512">
<g><path d="m467 185h-98.037c8.968-17.396 14.037-37.117 14.037-58 0-70.028-56.972-127-127-127s-127 56.972-127 127c0 20.883 5.069 40.604 14.037 58h-98.037c-24.813 0-45 20.187-45 45v237c0 14.867 7.252 28.068 18.399 36.266.285.227.585.425.883.628 7.296 5.102 16.16 8.106 25.718 8.106h422c9.555 0 18.417-3.002 25.712-8.101.3-.205.603-.405.89-.633 11.146-8.199 18.398-21.399 18.398-36.266v-237c0-24.813-20.187-45-45-45zm-437 282v-237c0-.94.098-1.857.264-2.75l154.404 120.072-154.304 122.924c-.232-1.046-.364-2.13-.364-3.246zm179.006-100.71 19.273 15.073c8.161 6.382 17.941 9.573 27.722 9.573s19.561-3.191 27.722-9.573l19.272-15.073 145.248 115.71h-384.486zm118.326-18.968 154.404-120.072c.166.893.264 1.81.264 2.75v237c0 1.116-.132 2.2-.364 3.246zm-71.332-317.322c53.486 0 97 43.514 97 97s-43.514 97-97 97-97-43.514-97-97 43.514-97 97-97zm0 224c35.897 0 68.359-14.974 91.479-39h101.14l-154.78 120.365-28.598 22.366c-5.441 4.256-13.041 4.255-18.482 0l-28.631-22.392-154.748-120.339h101.14c23.121 24.026 55.583 39 91.48 39z"/><path d="m256 191c8.284 0 15-6.716 15-15v-48c0-8.284-6.716-15-15-15s-15 6.716-15 15v48c0 8.284 6.716 15 15 15z"/><circle cx="256" cy="80.001" r="15"/></g>
</symbol>

<symbol id="exit" viewBox="0 0 512 512">
<g><path d="m171.392 296.875c8.284 0 15-6.716 15-15v-51.75c0-8.284-6.716-15-15-15s-15 6.716-15 15v51.75c0 8.284 6.716 15 15 15z"/><path d="m504.009 243.01-119.812-69.174c-9.994-5.771-22.5 1.468-22.5 12.99v24.674h-54.146c0-101.372 0-191.884 0-196.5 0-8.28-6.72-15-15-15-9.789 0-272.955 0-277.05 0-8.28 0-15 6.72-15 15v482c0 8.28 6.72 15 15 15h277.05c8.28 0 15-6.72 15-15 0-3.973 0-94.76 0-196.5h54.146v24.674c0 11.54 12.522 18.752 22.5 12.99l119.812-69.174c9.996-5.772 9.976-20.219 0-25.98zm-287.118 238.99c-8.631 0-177.962 0-186.39 0v-452h186.39zm30 0v-452h30.66v452zm144.806-182.807v-13.693c0-8.284-6.716-15-15-15h-69.146c0-9.657 0-19.343 0-29h69.146c8.284 0 15-6.716 15-15v-13.693l74.812 43.193z"/></g>
</symbol>

<symbol id="moon" viewBox="0 0 512 512">
<g>
		<path d="M507.681,209.011c-1.297-6.991-7.323-12.112-14.433-12.262c-7.145-0.155-13.346,4.712-14.936,11.642
			c-15.26,66.498-73.643,112.941-141.978,112.941c-80.321,0-145.667-65.346-145.667-145.666
			c0-68.335,46.443-126.718,112.942-141.976c6.93-1.59,11.791-7.827,11.643-14.934c-0.149-7.108-5.269-13.136-12.259-14.434
			C287.545,1.454,271.735,0,256,0C187.62,0,123.333,26.629,74.98,74.981C26.629,123.333,0,187.62,0,256
			s26.629,132.667,74.98,181.019C123.333,485.371,187.62,512,256,512s132.667-26.629,181.02-74.981
			C485.371,388.667,512,324.38,512,256C512,240.278,510.547,224.469,507.681,209.011z M256,482C131.383,482,30,380.617,30,256
			c0-118.227,91.264-215.544,207.036-225.212c-14.041,9.63-26.724,21.303-37.513,34.681
			c-25.058,31.071-38.857,70.207-38.857,110.197c0,96.863,78.804,175.666,175.667,175.666c39.99,0,79.126-13.8,110.197-38.857
			c13.378-10.789,25.051-23.471,34.682-37.511C471.544,390.736,374.228,482,256,482z"/>
	</g>
</symbol>

<symbol id="setting" viewBox="0 0 496 496">
<g>
<g>
		<path d="M488,200h-37.6c-5.106-21.625-13.678-42.282-25.384-61.168l26.6-26.6c3.123-3.124,3.123-8.188,0-11.312L395.08,44.352
			c-3.124-3.123-8.188-3.123-11.312,0l-26.608,26.6C338.276,59.255,317.622,50.693,296,45.6V8c0-4.418-3.582-8-8-8h-80
			c-4.418,0-8,3.582-8,8v37.6c-21.624,5.103-42.278,13.675-61.16,25.384l-26.608-26.632c-3.124-3.123-8.188-3.123-11.312,0
			L44.352,100.92c-3.123,3.124-3.123,8.188,0,11.312l26.6,26.6C59.257,157.72,50.696,178.377,45.6,200H8c-4.418,0-8,3.582-8,8v80
			c0,4.418,3.582,8,8,8h37.6c5.106,21.625,13.678,42.282,25.384,61.168l-26.632,26.6c-3.123,3.124-3.123,8.188,0,11.312
			l56.568,56.568c3.174,3.001,8.138,3.001,11.312,0l26.6-26.6C157.72,436.743,178.377,445.304,200,450.4V488c0,4.418,3.582,8,8,8h80
			c4.418,0,8-3.582,8-8v-37.6c21.625-5.106,42.282-13.678,61.168-25.384l26.6,26.6c3.124,3.123,8.188,3.123,11.312,0l56.568-56.568
			c3.123-3.124,3.123-8.188,0-11.312l-26.6-26.6C436.74,338.258,445.301,317.612,450.4,296H488c4.418,0,8-3.582,8-8v-80
			C496,203.582,492.418,200,488,200z M480,280h-36c-3.802-0.001-7.08,2.675-7.84,6.4c-4.887,24.078-14.395,46.981-28,67.44
			c-2.105,3.172-1.684,7.388,1.008,10.08l25.504,25.496l-45.256,45.256l-25.496-25.504c-2.692-2.692-6.908-3.113-10.08-1.008
			c-20.459,13.605-43.362,23.113-67.44,28c-3.725,0.76-6.401,4.038-6.4,7.84v36h-64v-36c0.001-3.802-2.675-7.08-6.4-7.84
			c-24.078-4.887-46.981-14.395-67.44-28c-3.172-2.105-7.388-1.684-10.08,1.008l-25.496,25.504L61.32,389.424l25.504-25.496
			c2.692-2.692,3.113-6.908,1.008-10.08c-13.605-20.459-23.113-43.362-28-67.44c-0.757-3.726-4.03-6.404-7.832-6.408H16v-64h36
			c3.802,0.001,7.08-2.675,7.84-6.4c4.887-24.078,14.395-46.981,28-67.44c2.105-3.172,1.683-7.388-1.008-10.08L61.32,106.576
			l45.256-45.256l25.504,25.504c2.692,2.692,6.908,3.113,10.08,1.008c20.457-13.602,43.357-23.111,67.432-28
			c3.726-0.757,6.404-4.03,6.408-7.832V16h64v36c-0.001,3.802,2.675,7.08,6.4,7.84c24.075,4.889,46.975,14.398,67.432,28
			c3.172,2.105,7.388,1.684,10.08-1.008l25.504-25.504l45.256,45.256l-25.504,25.496c-2.692,2.692-3.113,6.908-1.008,10.08
			c13.605,20.459,23.113,43.362,28,67.44c0.76,3.725,4.038,6.401,7.84,6.4h36V280z"/>
	</g>

	
	<g>
		<path d="M248,160c-48.601,0-88,39.399-88,88c0,48.601,39.399,88,88,88s88-39.399,88-88C335.943,199.423,296.577,160.057,248,160z
			 M248,320c-39.764,0-72-32.236-72-72c0-39.765,32.236-72,72-72c39.765,0,72,32.235,72,72C319.956,287.746,287.746,319.956,248,320
			z"/>
	</g>
</g>
</symbol>


<symbol id="content" viewBox="0 0 512 512">
<g><g><path d="m348.539 74.863h-.057c-5.522 0-9.972 4.477-9.972 10s4.506 10 10.028 10 10-4.477 10-10-4.477-10-9.999-10z"/><path d="m396.898 74.863h-.028c-5.522 0-9.985 4.477-9.985 10s4.491 10 10.014 10 10-4.477 10-10-4.479-10-10.001-10z"/><path d="m300.18 74.863h-.057c-5.522 0-9.972 4.477-9.972 10s4.506 10 10.028 10 10-4.477 10-10-4.476-10-9.999-10z"/><path d="m198.672 74.863h-134.644c-5.522 0-10 4.477-10 10s4.478 10 10 10h134.644c5.522 0 10-4.477 10-10s-4.478-10-10-10z"/><path d="m511.899 443.343c-.733-10.232-5.386-19.544-13.099-26.216l-37.875-32.796v-326.879c0-16.424-13.362-29.786-29.786-29.786h-401.353c-16.424 0-29.786 13.362-29.786 29.786v331.858c0 16.424 13.362 29.786 29.786 29.786h354.301l64.576 55.929c7 6.055 15.786 9.309 24.996 9.309.934 0 1.871-.034 2.812-.101 10.231-.731 19.54-5.381 26.2-13.081 6.683-7.704 9.961-17.58 9.228-27.809zm-491.899-385.891c0-5.396 4.39-9.786 9.786-9.786h401.354c5.396 0 9.786 4.39 9.786 9.786v64.581h-420.926zm9.786 341.644c-5.396 0-9.786-4.39-9.786-9.786v-247.278h420.926v224.981l-72.72-62.969c-.009-1.267-.044-2.537-.136-3.812-.193-2.681-.576-5.318-1.12-7.903h35.986c5.522 0 10-4.477 10-10v-104.544c0-5.523-4.478-10-10-10h-127.615c-5.522 0-10 4.477-10 10s4.478 10 10 10h117.615v84.544h-34.364c-2.891-4.35-6.378-8.342-10.437-11.852-.088-.076-.177-.15-.267-.223-14.581-11.745-25.802-11.753-35.702-11.76-11.674-.008-23.745-.017-49.369-21.26-4.189-3.474-10.386-2.958-13.946 1.156-10.344 11.958-13.999 27.618-13.074 43.939h-167.787v-84.544h117.53c5.522 0 10-4.477 10-10s-4.478-10-10-10h-127.53c-5.522 0-10 4.477-10 10v104.544c0 5.523 4.478 10 10 10h181.042c5.864 22.308 18.659 43.55 33.06 56.011 10.646 9.218 23.974 14.169 37.921 14.169 2.708.005 5.402-.185 8.082-.569l42.9 37.156zm309.119-69.76c-6.654 7.696-15.91 12.338-26.061 13.071-10.145.73-19.973-2.531-27.662-9.188-19.819-17.152-36.864-58.707-26.238-83.606 25.644 18.861 40.794 18.873 53.209 18.882 8.733.006 14.021.01 23.031 7.224 7.619 6.646 12.213 15.854 12.937 25.947.729 10.148-2.54 19.971-9.216 27.67zm.946 24.989c5.262-3.144 10.05-7.129 14.173-11.897 4.138-4.772 7.402-10.09 9.763-15.755l78.782 68.219-23.951 27.653zm147.703 103.732c-3.17 3.665-7.613 5.877-12.51 6.227-4.904.347-9.623-1.207-13.291-4.381l-28.017-24.266 23.952-27.655 28.024 24.267c3.672 3.176 5.888 7.623 6.238 12.522.351 4.896-1.207 9.61-4.396 13.286z"/><path d="m128.119 332.836h86.938c5.522 0 10-4.477 10-10s-4.478-10-10-10h-86.938c-5.522 0-10 4.477-10 10s4.477 10 10 10z"/><path d="m57.99 332.836h29.622c5.522 0 10-4.477 10-10s-4.478-10-10-10h-29.622c-5.522 0-10 4.477-10 10s4.478 10 10 10z"/><path d="m139.995 353.344h-82.005c-5.522 0-10 4.477-10 10s4.478 10 10 10h82.006c5.522 0 10-4.477 10-10s-4.478-10-10.001-10z"/><path d="m235.324 353.344h-44.674c-5.522 0-10 4.477-10 10s4.478 10 10 10h44.674c5.522 0 10-4.477 10-10s-4.477-10-10-10z"/><path d="m230.42 187.785h.057c5.522 0 9.972-4.477 9.972-10s-4.506-10-10.028-10-10 4.477-10 10c-.001 5.523 4.476 10 9.999 10z"/></g></g>
</symbol>

<symbol id="chat" viewBox="0 0 512 512">
<g><g><path d="m444.555 191.141h-238c-4.142 0-7.5 3.358-7.5 7.5s3.358 7.5 7.5 7.5h238c4.142 0 7.5-3.358 7.5-7.5s-3.358-7.5-7.5-7.5z"/><path d="m444.555 248.474h-238c-4.142 0-7.5 3.358-7.5 7.5s3.358 7.5 7.5 7.5h238c4.142 0 7.5-3.358 7.5-7.5s-3.358-7.5-7.5-7.5z"/><path d="m444.555 305.807h-238c-4.142 0-7.5 3.358-7.5 7.5s3.358 7.5 7.5 7.5h238c4.142 0 7.5-3.358 7.5-7.5s-3.358-7.5-7.5-7.5z"/><path d="m468.378 125.549h-285.646c-24.053 0-43.622 19.568-43.622 43.622v179.617c0 24.053 19.568 43.622 43.622 43.622h200.211c2.141 0 4.13.963 5.458 2.644l64.655 81.853c2.548 3.226 6.266 4.984 10.159 4.984 1.447 0 2.919-.243 4.363-.745 5.327-1.85 8.769-6.689 8.769-12.328v-77.153c20.225-3.778 35.653-21.659 35.653-42.877v-179.618c0-24.053-19.568-43.621-43.622-43.621zm28.622 223.239c0 15.577-12.673 28.412-28.25 28.61-4.104.053-7.404 3.395-7.404 7.5v78.305l-61.174-77.447c-4.189-5.305-10.469-8.347-17.229-8.347h-200.211c-15.782 0-28.622-12.84-28.622-28.622v-179.617c0-15.782 12.839-28.622 28.622-28.622h285.646c15.782 0 28.622 12.84 28.622 28.622z"/><path d="m110.494 249.561c-5.13.728-9.724 3.369-12.936 7.435l-51.521 65.226v-65.371c0-4.105-3.3-7.447-7.404-7.5-13.031-.166-23.633-10.903-23.633-23.935v-156.361c0-13.203 10.742-23.945 23.945-23.945h248.663c13.203 0 23.945 10.742 23.945 23.945v28.932c0 4.142 3.358 7.5 7.5 7.5s7.5-3.358 7.5-7.5v-28.932c0-21.474-17.471-38.945-38.945-38.945h-248.663c-21.474 0-38.945 17.471-38.945 38.945v156.361c0 18.667 13.371 34.438 31.038 38.124v66.366c0 5.328 3.252 9.901 8.286 11.649 1.365.474 2.755.704 4.123.704 3.677 0 7.192-1.662 9.599-4.709l56.284-71.256c.812-1.029 1.975-1.697 3.273-1.882 4.101-.582 6.954-4.379 6.371-8.48-.582-4.101-4.373-6.956-8.48-6.371z"/></g></g>
</symbol>


<symbol id="window" viewBox="0 0 512 512">
<g><path d="m261.776 87.845h-11.865c-5.523 0-10 4.477-10 10s4.477 10 10 10h11.865c5.523 0 10-4.477 10-10s-4.477-10-10-10z"/><path d="m316.656 87.845h-11.865c-5.523 0-10 4.477-10 10s4.477 10 10 10h11.865c5.523 0 10-4.477 10-10s-4.477-10-10-10z"/><path d="m371.537 87.845h-11.865c-5.523 0-10 4.477-10 10s4.477 10 10 10h11.865c5.523 0 10-4.477 10-10s-4.477-10-10-10z"/><path d="m149.749 87.845h-85.633c-5.523 0-10 4.477-10 10s4.477 10 10 10h85.634c5.523 0 10-4.477 10-10-.001-5.523-4.478-10-10.001-10z"/><path d="m507.409 269.441c-2.862-1.84-6.462-2.099-9.558-.688-6.058 2.762-12.538 4.163-19.259 4.163-17.766 0-34.159-10.309-41.764-26.262-1.659-3.48-5.171-5.697-9.027-5.697h-3.193v-166.229c0-18.483-15.068-33.52-33.589-33.52h-357.43c-18.521 0-33.589 15.037-33.589 33.52v352.554c0 18.483 15.068 33.52 33.589 33.52h352.436c.142 0 .283-.004.424-.01 14.121 6.592 24.956 9.497 25.61 9.67.836.22 1.693.331 2.55.331s1.714-.11 2.55-.331c.956-.252 23.665-6.344 46.597-21.253 31.561-20.523 48.244-47.843 48.244-79.01v-92.347c0-3.402-1.73-6.571-4.591-8.411zm-487.409-194.713c0-7.455 6.096-13.52 13.589-13.52h357.431c7.493 0 13.589 6.065 13.589 13.52v59.753h-384.609zm0 352.554v-272.801h384.608v86.475h-3.193c-3.855 0-7.368 2.217-9.027 5.697-7.604 15.954-23.998 26.262-41.763 26.262-6.722 0-13.202-1.4-19.26-4.163-3.094-1.412-6.696-1.153-9.558.688-2.862 1.84-4.591 5.009-4.591 8.411v92.347c0 27.085 12.599 51.265 36.614 70.603h-320.241c-7.493 0-13.589-6.065-13.589-13.519zm472-57.083c0 52.909-63.77 75.865-77.402 80.164-13.68-4.283-77.381-27.093-77.381-80.164v-78.63c4.376.896 8.855 1.347 13.409 1.347 23.254 0 44.875-12.357 56.744-31.959h14.478c11.869 19.602 33.49 31.959 56.745 31.959 4.553 0 9.032-.451 13.408-1.347v78.63z"/><path d="m448.585 329.918c-4.219-3.563-10.529-3.03-14.092 1.189l-23.217 27.499-7.413-7.364c-3.919-3.893-10.251-3.872-14.142.046-3.893 3.918-3.872 10.25.046 14.142l15.106 15.006c1.878 1.865 4.413 2.906 7.047 2.906.146 0 .292-.003.438-.01 2.79-.122 5.402-1.405 7.203-3.539l30.212-35.784c3.565-4.219 3.032-10.528-1.188-14.091z"/><path d="m212.304 239.867h-26.852v-3.135c0-23.09-18.734-41.875-41.762-41.875s-41.762 18.785-41.762 41.875v3.135h-26.626c-5.523 0-10 4.477-10 10v113.444c0 18.774 15.273 34.047 34.047 34.047h88.907c18.774 0 34.047-15.273 34.047-34.047v-113.444c.001-5.523-4.476-10-9.999-10zm-90.377-3.136c0-12.062 9.763-21.875 21.762-21.875s21.762 9.813 21.762 21.875v3.135h-43.524zm80.377 126.58c0 7.746-6.302 14.047-14.047 14.047h-88.907c-7.746 0-14.047-6.302-14.047-14.047v-103.444h16.625v21.043c0 5.523 4.477 10 10 10s10-4.477 10-10v-21.043h43.524v21.043c0 5.523 4.477 10 10 10s10-4.477 10-10v-21.043h16.852z"/></g>
</symbol>

<symbol id="moon" viewBox="0 0 512 512">
<g>
		<path d="M507.681,209.011c-1.297-6.991-7.323-12.112-14.433-12.262c-7.145-0.155-13.346,4.712-14.936,11.642
			c-15.26,66.498-73.643,112.941-141.978,112.941c-80.321,0-145.667-65.346-145.667-145.666
			c0-68.335,46.443-126.718,112.942-141.976c6.93-1.59,11.791-7.827,11.643-14.934c-0.149-7.108-5.269-13.136-12.259-14.434
			C287.545,1.454,271.735,0,256,0C187.62,0,123.333,26.629,74.98,74.981C26.629,123.333,0,187.62,0,256
			s26.629,132.667,74.98,181.019C123.333,485.371,187.62,512,256,512s132.667-26.629,181.02-74.981
			C485.371,388.667,512,324.38,512,256C512,240.278,510.547,224.469,507.681,209.011z M256,482C131.383,482,30,380.617,30,256
			c0-118.227,91.264-215.544,207.036-225.212c-14.041,9.63-26.724,21.303-37.513,34.681
			c-25.058,31.071-38.857,70.207-38.857,110.197c0,96.863,78.804,175.666,175.667,175.666c39.99,0,79.126-13.8,110.197-38.857
			c13.378-10.789,25.051-23.471,34.682-37.511C471.544,390.736,374.228,482,256,482z"/>
	</g>
</symbol>

<symbol id="panel" viewBox="0 0 512 512">
<g><path d="m479.122 253.18h-88.926c0-10.224 0-175.686 0-186.888 0-20.505-16.682-37.187-37.187-37.187h-315.822c-20.505.001-37.187 16.683-37.187 37.187v245.486c0 20.505 16.682 37.187 37.187 37.187h212.266v84.387 16.665c0 18.129 14.748 32.877 32.877 32.877h196.793c18.129 0 32.878-14.749 32.878-32.877 0-50.44 0-112.252 0-163.959-.001-18.129-14.75-32.878-32.879-32.878zm-209.67 85.785v-13.886h165.376c-14.495 35.814 21.359 71.666 57.172 57.172v7.759l-31.403 21.942c-7.373 5.15-17.465 4.404-23.998-1.774l-51.558-48.755c-19.755-18.68-51.312-18.085-70.348 1.324l-45.241 46.128zm188.776-13.886h33.772v33.773c-4.423 4.228-10.273 6.6-16.479 6.6-21.008 0-31.69-25.313-17.293-40.373zm33.772-39.021v19.021c-6.592 0-215.951 0-222.548 0v-19.021c0-7.101 5.777-12.877 12.878-12.877h196.792c7.101-.001 12.878 5.776 12.878 12.877zm-454.813 42.907c-9.477 0-17.187-7.71-17.187-17.187v-173.825h243c5.522 0 10-4.477 10-10s-4.478-10-10-10h-243v-51.66c0-9.477 7.71-17.187 17.187-17.187h315.823c9.477 0 17.187 7.71 17.187 17.187v51.66h-27.197c-5.522 0-10 4.477-10 10s4.478 10 10 10h27.196v115.227h-87.867c-18.129 0-32.877 14.749-32.877 32.877v42.907h-212.265zm454.813 121.052c0 7.101-5.777 12.877-12.878 12.877h-196.793c-7.101 0-12.877-5.777-12.877-12.877v-12.579l59.521-60.687c11.452-11.677 30.441-12.036 42.326-.796l51.558 48.755c13.396 12.668 34.086 14.196 49.195 3.638l19.948-13.939z"/><path d="m57.152 55.585c-14.858 0-26.946 12.088-26.946 26.946s12.088 26.947 26.946 26.947 26.947-12.088 26.947-26.947-12.088-26.946-26.947-26.946zm0 33.893c-3.83 0-6.946-3.116-6.946-6.947 0-3.83 3.116-6.946 6.946-6.946s6.946 3.116 6.946 6.946c.001 3.831-3.116 6.947-6.946 6.947z"/><path d="m122.353 55.585c-14.858 0-26.946 12.088-26.946 26.946s12.088 26.947 26.946 26.947 26.946-12.088 26.946-26.947-12.088-26.946-26.946-26.946zm0 33.893c-3.83 0-6.946-3.116-6.946-6.947 0-3.83 3.116-6.946 6.946-6.946s6.946 3.116 6.946 6.946c0 3.831-3.116 6.947-6.946 6.947z"/><path d="m187.553 55.585c-14.858 0-26.946 12.088-26.946 26.946s12.088 26.947 26.946 26.947 26.947-12.088 26.947-26.947-12.089-26.946-26.947-26.946zm0 33.893c-3.83 0-6.946-3.116-6.946-6.947 0-3.83 3.116-6.946 6.946-6.946 3.831 0 6.947 3.116 6.947 6.946 0 3.831-3.116 6.947-6.947 6.947z"/><path d="m166.658 206.631c3.608-4.182 3.143-10.497-1.039-14.104-4.183-3.609-10.496-3.142-14.104 1.039l-16.527 19.155c-7.074 8.202-7.074 20.57.001 28.772l16.526 19.155c3.601 4.174 9.916 4.652 14.104 1.039 4.182-3.607 4.647-9.922 1.039-14.104l-16.525-19.154c-.65-.753-.65-1.89-.001-2.643z"/><path d="m255.207 212.72-16.526-19.155c-3.607-4.181-9.923-4.646-14.104-1.039-4.182 3.607-4.647 9.922-1.039 14.104l16.525 19.154c.65.753.65 1.89.001 2.643l-16.526 19.155c-3.608 4.182-3.143 10.497 1.039 14.104 4.19 3.615 10.504 3.134 14.104-1.039l16.527-19.155c7.074-8.201 7.074-20.57-.001-28.772z"/><path d="m202.671 183.897c-5.438-.968-10.629 2.661-11.594 8.099l-11.651 65.668c-1.085 6.116 3.616 11.749 9.858 11.749 4.757 0 8.975-3.408 9.835-8.254l11.651-65.668c.965-5.439-2.662-10.629-8.099-11.594z"/><path d="m303.025 137.953c5.522 0 10-4.477 10-10s-4.478-10-10-10h-.025c-5.522 0-9.987 4.477-9.987 10s4.49 10 10.012 10z"/></g>
</symbol>

<symbol id="baggage" viewBox="0 0 512 512">
<g><path d="m497 120.5h-135.625v-29.808c0-33.397-27.171-60.567-60.567-60.567h-89.615c-33.396 0-60.567 27.17-60.567 60.567v29.808h-135.626c-8.284 0-15 6.716-15 15v272.5c0 40.735 33.141 73.875 73.875 73.875h364.25c40.734 0 73.875-33.14 73.875-73.875v-272.5c0-8.284-6.716-15-15-15zm-206.965 195.75c0 18.767-15.269 34.035-34.035 34.035s-34.035-15.268-34.035-34.035v-34.035h68.07zm15-64.035h-98.07c-8.284 0-15 6.716-15 15v27.247c-87.228-18.932-152.617-75.51-161.03-143.962h450.129c-8.413 68.452-73.801 125.03-161.029 143.963v-27.247c0-8.285-6.716-15.001-15-15.001zm-124.41-161.523c0-16.855 13.713-30.567 30.567-30.567h89.615c16.854 0 30.567 13.712 30.567 30.567v29.808h-150.75v-29.808zm301.375 317.308c0 24.193-19.683 43.875-43.875 43.875h-364.25c-24.192 0-43.875-19.682-43.875-43.875v-180.146c12.11 17.317 27.724 33.308 46.587 47.455 32.687 24.515 72.592 41.535 116.022 49.932 4.386 31.065 31.134 55.043 63.391 55.043s59.005-23.978 63.391-55.043c43.43-8.397 83.334-25.417 116.022-49.932 18.863-14.147 34.477-30.139 46.587-47.455z"/></g>
</symbol>

<symbol id="month" viewBox="0 0 64 64">
<path d="M62,7H59V6a1,1,0,0,0-1-1H53V4a3,3,0,0,0-6,0V5H43V4a3,3,0,0,0-6,0V5H33V4a3,3,0,0,0-6,0V5H23V4a3,3,0,0,0-6,0V5H13V4A3,3,0,0,0,7,4V5H2A1,1,0,0,0,1,6V58a1,1,0,0,0,1,1H3v3a1,1,0,0,0,1,1H62a1,1,0,0,0,1-1V8A1,1,0,0,0,62,7ZM3,57V19H57V57ZM49,4a1,1,0,0,1,2,0V8a1,1,0,0,1-2,0ZM39,4a1,1,0,0,1,2,0V8a1,1,0,0,1-2,0ZM29,4a1,1,0,0,1,2,0V8a1,1,0,0,1-2,0ZM19,4a1,1,0,0,1,2,0V8a1,1,0,0,1-2,0ZM9,4a1,1,0,0,1,2,0V8A1,1,0,0,1,9,8ZM7,7V8a3,3,0,0,0,6,0V7h4V8a3,3,0,0,0,6,0V7h4V8a3,3,0,0,0,6,0V7h4V8a3,3,0,0,0,6,0V7h4V8a3,3,0,0,0,6,0V7h4V17H3V7ZM61,61H5V59H58a1,1,0,0,0,1-1V9h2Z"/><path d="M40.18,27H41V25H37a1,1,0,0,0-1,1v4h2V27.76A13,13,0,0,1,25.36,50.15L24.64,52A14.81,14.81,0,0,0,30,53,15,15,0,0,0,40.18,27Z"/><path d="M22,48.24A13,13,0,0,1,34.64,25.85L35.36,24A14.81,14.81,0,0,0,30,23,15,15,0,0,0,19.82,49H19v2h4a1,1,0,0,0,1-1V46H22Z"/><path d="M21,38a9,9,0,1,0,9-9A9,9,0,0,0,21,38Zm15.92-1H35v2h1.92A7,7,0,0,1,31,44.92V43H29v1.92A7,7,0,0,1,23.08,39H25V37H23.08A7,7,0,0,1,29,31.08V33h2V31.08A7,7,0,0,1,36.92,37Z"/><path d="M31,35H29v3a1,1,0,0,0,.29.71l3,3,1.42-1.42L31,37.59Z"/></g>
</symbol>


<symbol id="content" viewBox="0 0 512 512">
<g><g><path d="m348.539 74.863h-.057c-5.522 0-9.972 4.477-9.972 10s4.506 10 10.028 10 10-4.477 10-10-4.477-10-9.999-10z"/><path d="m396.898 74.863h-.028c-5.522 0-9.985 4.477-9.985 10s4.491 10 10.014 10 10-4.477 10-10-4.479-10-10.001-10z"/><path d="m300.18 74.863h-.057c-5.522 0-9.972 4.477-9.972 10s4.506 10 10.028 10 10-4.477 10-10-4.476-10-9.999-10z"/><path d="m198.672 74.863h-134.644c-5.522 0-10 4.477-10 10s4.478 10 10 10h134.644c5.522 0 10-4.477 10-10s-4.478-10-10-10z"/><path d="m511.899 443.343c-.733-10.232-5.386-19.544-13.099-26.216l-37.875-32.796v-326.879c0-16.424-13.362-29.786-29.786-29.786h-401.353c-16.424 0-29.786 13.362-29.786 29.786v331.858c0 16.424 13.362 29.786 29.786 29.786h354.301l64.576 55.929c7 6.055 15.786 9.309 24.996 9.309.934 0 1.871-.034 2.812-.101 10.231-.731 19.54-5.381 26.2-13.081 6.683-7.704 9.961-17.58 9.228-27.809zm-491.899-385.891c0-5.396 4.39-9.786 9.786-9.786h401.354c5.396 0 9.786 4.39 9.786 9.786v64.581h-420.926zm9.786 341.644c-5.396 0-9.786-4.39-9.786-9.786v-247.278h420.926v224.981l-72.72-62.969c-.009-1.267-.044-2.537-.136-3.812-.193-2.681-.576-5.318-1.12-7.903h35.986c5.522 0 10-4.477 10-10v-104.544c0-5.523-4.478-10-10-10h-127.615c-5.522 0-10 4.477-10 10s4.478 10 10 10h117.615v84.544h-34.364c-2.891-4.35-6.378-8.342-10.437-11.852-.088-.076-.177-.15-.267-.223-14.581-11.745-25.802-11.753-35.702-11.76-11.674-.008-23.745-.017-49.369-21.26-4.189-3.474-10.386-2.958-13.946 1.156-10.344 11.958-13.999 27.618-13.074 43.939h-167.787v-84.544h117.53c5.522 0 10-4.477 10-10s-4.478-10-10-10h-127.53c-5.522 0-10 4.477-10 10v104.544c0 5.523 4.478 10 10 10h181.042c5.864 22.308 18.659 43.55 33.06 56.011 10.646 9.218 23.974 14.169 37.921 14.169 2.708.005 5.402-.185 8.082-.569l42.9 37.156zm309.119-69.76c-6.654 7.696-15.91 12.338-26.061 13.071-10.145.73-19.973-2.531-27.662-9.188-19.819-17.152-36.864-58.707-26.238-83.606 25.644 18.861 40.794 18.873 53.209 18.882 8.733.006 14.021.01 23.031 7.224 7.619 6.646 12.213 15.854 12.937 25.947.729 10.148-2.54 19.971-9.216 27.67zm.946 24.989c5.262-3.144 10.05-7.129 14.173-11.897 4.138-4.772 7.402-10.09 9.763-15.755l78.782 68.219-23.951 27.653zm147.703 103.732c-3.17 3.665-7.613 5.877-12.51 6.227-4.904.347-9.623-1.207-13.291-4.381l-28.017-24.266 23.952-27.655 28.024 24.267c3.672 3.176 5.888 7.623 6.238 12.522.351 4.896-1.207 9.61-4.396 13.286z"/><path d="m128.119 332.836h86.938c5.522 0 10-4.477 10-10s-4.478-10-10-10h-86.938c-5.522 0-10 4.477-10 10s4.477 10 10 10z"/><path d="m57.99 332.836h29.622c5.522 0 10-4.477 10-10s-4.478-10-10-10h-29.622c-5.522 0-10 4.477-10 10s4.478 10 10 10z"/><path d="m139.995 353.344h-82.005c-5.522 0-10 4.477-10 10s4.478 10 10 10h82.006c5.522 0 10-4.477 10-10s-4.478-10-10.001-10z"/><path d="m235.324 353.344h-44.674c-5.522 0-10 4.477-10 10s4.478 10 10 10h44.674c5.522 0 10-4.477 10-10s-4.477-10-10-10z"/><path d="m230.42 187.785h.057c5.522 0 9.972-4.477 9.972-10s-4.506-10-10.028-10-10 4.477-10 10c-.001 5.523 4.476 10 9.999 10z"/></g></g>
</symbol>


</svg>